Coordinates
version=1
nRows=30
nColumns=38
inDegrees=no

Units are S.I. units (second, meters, Newtons, ...)
If the header above contains a line with 'inDegrees', this indicates whether rotational values are in degrees (yes) or radians (no).

endheader
time	pelvis_tilt	pelvis_list	pelvis_rotation	pelvis_tx	pelvis_ty	pelvis_tz	hip_flexion_r	hip_adduction_r	hip_rotation_r	knee_angle_r	ankle_angle_r	subtalar_angle_r	mtp_angle_r	hip_flexion_l	hip_adduction_l	hip_rotation_l	knee_angle_l	ankle_angle_l	subtalar_angle_l	mtp_angle_l	lumbar_extension	lumbar_bending	lumbar_rotation	arm_flex_r	arm_add_r	arm_rot_r	elbow_flex_r	pro_sup_r	wrist_flex_r	wrist_dev_r	arm_flex_l	arm_add_l	arm_rot_l	elbow_flex_l	pro_sup_l	wrist_flex_l	wrist_dev_l
1.48	1.58938	1.49677	-0.00153239	0.578258	1.30716	0.963106	0.13579	0.104149	-0.210735	0.299414	0.123681	0	0	0.49138	-0.0989629	-0.0133371	1.28668	0.00338713	0	0	-0.071236	0.026123	0.0499896	-0.119927	-0.0802976	-0.129421	0.282383	1.36989	0	0	-0.184577	-0.499293	0.769676	0.738662	0.640639	0	0
1.49	1.65945	1.49999	-0.079859	0.578771	1.31778	0.964337	0.109387	0.104876	-0.193338	0.282414	0.124852	0	0	0.497996	-0.0987777	-0.0231564	1.25618	0.0209355	0	0	-0.0798945	0.0228391	0.0550336	-0.118384	-0.0830955	-0.125306	0.285217	1.36831	0	0	-0.184733	-0.498298	0.767464	0.738364	0.637283	0	0
1.5	1.63686	1.51513	-0.0634125	0.579263	1.32869	0.963677	0.0904356	0.0885693	-0.191456	0.270027	0.140866	0	0	0.511432	-0.085696	-0.0369369	1.22354	0.0375663	0	0	-0.0784499	0.00562669	0.0554328	-0.118251	-0.0824971	-0.123098	0.287605	1.36822	0	0	-0.19014	-0.504847	0.766041	0.746631	0.634177	0	0
1.51	1.71997	1.51835	-0.154038	0.579695	1.3392	0.964313	0.0668552	0.0872355	-0.176244	0.256283	0.143723	0	0	0.515725	-0.08658	-0.0500812	1.18481	0.0508553	0	0	-0.086086	0.00164656	0.0581038	-0.115368	-0.0849606	-0.117116	0.28986	1.36419	0	0	-0.18988	-0.506244	0.77071	0.746967	0.625878	0	0
1.52	1.77778	1.52043	-0.218122	0.579989	1.34962	0.964559	0.0467681	0.0861652	-0.164184	0.246263	0.147774	0	0	0.520621	-0.0882436	-0.0633805	1.14311	0.0628109	0	0	-0.0920424	-0.000993756	0.059072	-0.111772	-0.0872922	-0.113588	0.291284	1.36313	0	0	-0.189707	-0.506374	0.773727	0.745028	0.622079	0	0
1.53	1.85806	1.52337	-0.298806	0.580738	1.36004	0.96458	0.0267476	0.0891266	-0.147413	0.237425	0.148152	0	0	0.52468	-0.0992051	-0.0769018	1.09694	0.0808666	0	0	-0.098577	-0.00640453	0.0560943	-0.108332	-0.0874977	-0.111665	0.292063	1.36597	0	0	-0.187634	-0.508551	0.778372	0.742703	0.618966	0	0
1.54	1.89938	1.52355	-0.344049	0.58076	1.37039	0.964368	0.00703986	0.0892659	-0.138099	0.226813	0.152157	0	0	0.526744	-0.101144	-0.0913317	1.04787	0.0919813	0	0	-0.104021	-0.00718096	0.05516	-0.104243	-0.0892019	-0.112828	0.293303	1.36948	0	0	-0.185658	-0.509021	0.785698	0.740313	0.616389	0	0
1.55	1.89971	1.52169	-0.352891	0.580163	1.38064	0.963922	-0.0123228	0.085969	-0.13605	0.214286	0.160053	0	0	0.527454	-0.0938347	-0.1045	0.996071	0.095761	0	0	-0.108615	-0.00404103	0.0564951	-0.0985126	-0.0923627	-0.11542	0.293798	1.37232	0	0	-0.184802	-0.507475	0.791813	0.738121	0.614323	0	0
1.56	1.90958	1.52196	-0.366777	0.580138	1.39089	0.963225	-0.0292018	0.0856878	-0.128215	0.205911	0.165088	0	0	0.527997	-0.0957919	-0.121271	0.941458	0.106139	0	0	-0.112827	-0.00469908	0.0556586	-0.0932307	-0.0931237	-0.11868	0.293341	1.37423	0	0	-0.182028	-0.507811	0.799013	0.734188	0.617089	0	0
1.57	1.91511	1.52252	-0.377535	0.580143	1.4011	0.962389	-0.0450469	0.0848077	-0.119401	0.198746	0.170098	0	0	0.526888	-0.0978409	-0.142427	0.883269	0.115129	0	0	-0.116873	-0.00567454	0.0560543	-0.0875484	-0.0937473	-0.121785	0.292717	1.37532	0	0	-0.178863	-0.507646	0.805263	0.729471	0.620382	0	0
1.58	1.91451	1.5237	-0.381143	0.579983	1.41154	0.961408	-0.0609023	0.0829878	-0.112944	0.191051	0.175567	0	0	0.523958	-0.0982088	-0.165244	0.821077	0.123473	0	0	-0.119887	-0.00709598	0.0558166	-0.082499	-0.0940559	-0.123847	0.291908	1.37702	0	0	-0.175506	-0.507613	0.812835	0.72441	0.623913	0	0
1.59	1.89302	1.52574	-0.363374	0.579683	1.42215	0.960216	-0.0744927	0.0800107	-0.110197	0.18561	0.182342	0	0	0.519987	-0.0970931	-0.189715	0.755203	0.131586	0	0	-0.121273	-0.00894181	0.055247	-0.077858	-0.0936976	-0.127629	0.29054	1.37816	0	0	-0.173236	-0.507275	0.81728	0.720055	0.626571	0	0
1.6	1.8014	1.52801	-0.274364	0.579209	1.43288	0.958605	-0.0830579	0.0772003	-0.11053	0.184234	0.190569	0	0	0.518265	-0.0950143	-0.213388	0.688257	0.140387	0	0	-0.119127	-0.00986313	0.0533561	-0.0740191	-0.0930886	-0.130446	0.289595	1.37729	0	0	-0.173032	-0.506643	0.81945	0.716744	0.628903	0	0
1.61	1.73184	1.53107	-0.207446	0.578655	1.44385	0.957069	-0.0932347	0.0728676	-0.109001	0.182431	0.198637	0	0	0.512596	-0.0902654	-0.240355	0.616999	0.146188	0	0	-0.118039	-0.0123098	0.0512688	-0.0697316	-0.0919944	-0.133655	0.28811	1.37665	0	0	-0.173728	-0.505857	0.819234	0.713444	0.632069	0	0
1.62	1.64722	1.5349	-0.125676	0.577917	1.45498	0.955493	-0.10223	0.0670815	-0.108189	0.182722	0.207039	0	0	0.505216	-0.0827553	-0.269287	0.543053	0.149572	0	0	-0.116514	-0.0154557	0.0495961	-0.0654998	-0.0909913	-0.135645	0.285985	1.37586	0	0	-0.174471	-0.504496	0.818253	0.709768	0.633951	0	0
1.63	1.52975	1.53935	-0.0112529	0.576957	1.46622	0.953822	-0.109006	0.0596133	-0.109634	0.186526	0.216883	0	0	0.496626	-0.0717588	-0.297047	0.46695	0.152145	0	0	-0.114162	-0.0193036	0.0492403	-0.0620834	-0.0900579	-0.13775	0.28411	1.37558	0	0	-0.174166	-0.502736	0.818499	0.705577	0.634191	0	0
1.64	1.34857	1.54631	0.166139	0.575759	1.47761	0.952105	-0.113167	0.0475235	-0.113952	0.195427	0.229886	0	0	0.483963	-0.0534474	-0.318088	0.38296	0.151114	0	0	-0.111235	-0.0264141	0.0500809	-0.0593525	-0.0884697	-0.141519	0.282423	1.37501	0	0	-0.173251	-0.500617	0.818575	0.700658	0.632539	0	0
1.65	0.975509	1.55048	0.536467	0.574345	1.48929	0.950085	-0.114811	0.0356583	-0.12087	0.20634	0.244132	0	0	0.473161	-0.0336065	-0.330258	0.301133	0.151288	0	0	-0.10533	-0.0327347	0.0503244	-0.0582454	-0.0865996	-0.14572	0.28161	1.374	0	0	-0.173319	-0.498175	0.817534	0.695827	0.628926	0	0
1.66	0.563707	1.55383	0.946013	0.57275	1.50145	0.948351	-0.123365	0.0227432	-0.129029	0.212416	0.257494	0	0	0.454545	-0.00963849	-0.328417	0.212858	0.14647	0	0	-0.101778	-0.0398812	0.0503507	-0.0576248	-0.0844125	-0.150407	0.280527	1.37256	0	0	-0.173456	-0.495467	0.818221	0.689749	0.624691	0	0
1.67	0.137418	1.55468	1.36915	0.571208	1.51403	0.946705	-0.134584	0.0108059	-0.134895	0.216753	0.26879	0	0	0.430153	0.0143707	-0.309061	0.120625	0.135297	0	0	-0.0988809	-0.0462507	0.0512329	-0.0578936	-0.0827256	-0.15217	0.280373	1.37283	0	0	-0.174401	-0.492945	0.820871	0.683926	0.621726	0	0
1.68	-0.216101	1.5524	1.71664	0.569958	1.52692	0.944937	-0.140307	-0.00177379	-0.140569	0.230299	0.281481	0	0	0.401942	0.0353742	-0.271799	0.0266808	0.11505	0	0	-0.0943997	-0.0520972	0.0549435	-0.0592444	-0.0811876	-0.150078	0.280819	1.36904	0	0	-0.176705	-0.490356	0.822151	0.678774	0.617643	0	0
1.69	-0.366762	1.5494	1.86454	0.569024	1.5392	0.942808	-0.14264	-0.00203138	-0.128889	0.247198	0.282457	0	0	0.400817	0.0464272	-0.246226	0	0.11273	0	0	-0.0907345	-0.056154	0.0568983	-0.0596573	-0.0782806	-0.149586	0.280089	1.36778	0	0	-0.178561	-0.489107	0.821514	0.675231	0.614639	0	0
1.7	-0.432987	1.5483	1.92674	0.568224	1.55177	0.941138	-0.147131	-0.00873299	-0.130803	0.265606	0.290201	0	0	0.405056	0.0487848	-0.235229	0	0.120945	0	0	-0.0887012	-0.0588205	0.0592176	-0.0588132	-0.0749488	-0.148472	0.277822	1.36575	0	0	-0.180956	-0.488126	0.820318	0.673028	0.609193	0	0
1.71	-0.435803	1.5463	1.92421	0.567559	1.5648	0.939515	-0.149067	-0.0150183	-0.132924	0.286892	0.297061	0	0	0.40804	0.0498186	-0.229809	0	0.128374	0	0	-0.0843821	-0.060617	0.061888	-0.0577114	-0.0716908	-0.146478	0.274707	1.36299	0	0	-0.184868	-0.4879	0.820042	0.67184	0.603068	0	0
1.72	-0.44267	1.54316	1.92387	0.567021	1.57825	0.937946	-0.146234	-0.0230201	-0.134758	0.315135	0.303485	0	0	0.409617	0.0505835	-0.228917	0	0.128708	0	0	-0.0779739	-0.063085	0.0656663	-0.0571487	-0.0685641	-0.144149	0.271874	1.35962	0	0	-0.190164	-0.488491	0.820657	0.671705	0.597253	0	0
1.73	-0.436735	1.54123	1.90884	0.566469	1.59225	0.936828	-0.146245	-0.0401117	-0.147664	0.342252	0.315233	0	0	0.412821	0.0459707	-0.238755	0.015451	0.128561	0	0	-0.0715795	-0.0648588	0.0709247	-0.0575252	-0.0656472	-0.142294	0.269371	1.3553	0	0	-0.19645	-0.489383	0.821234	0.673621	0.590918	0	0
1.74	-0.613117	1.53084	2.07796	0.56648	1.60589	0.934252	-0.145813	-0.0530441	-0.134334	0.356013	0.316642	0	0	0.442911	0.0470626	-0.258358	0.0842691	0.137006	0	0	-0.0588622	-0.0787023	0.0753632	-0.0596697	-0.0596787	-0.139707	0.266824	1.34926	0	0	-0.205588	-0.498157	0.822239	0.68475	0.582202	0	0
1.75	-0.635176	1.54132	2.09539	0.565658	1.62043	0.934412	-0.14761	-0.0584853	-0.138924	0.403719	0.315406	0	0	0.452021	0.0350102	-0.272492	0.155354	0.152471	0	0	-0.0641822	-0.0743079	0.0790739	-0.0603027	-0.059318	-0.137744	0.263472	1.34481	0	0	-0.209398	-0.497628	0.826051	0.68486	0.57546	0	0
1.76	-0.660243	1.54043	2.11207	0.565481	1.63515	0.932886	-0.141317	-0.0664958	-0.129315	0.443521	0.310707	0	0	0.470469	0.0259542	-0.290428	0.2266	0.175935	0	0	-0.0561955	-0.0773145	0.0854794	-0.0634555	-0.0575299	-0.134457	0.260033	1.33917	0	0	-0.218777	-0.502393	0.829248	0.691987	0.567188	0	0
1.77	-0.719395	1.53935	2.16275	0.565167	1.65029	0.931447	-0.133835	-0.075543	-0.116707	0.486323	0.30132	0	0	0.479106	0.0215358	-0.300303	0.276187	0.186828	0	0	-0.0473505	-0.0812861	0.0908391	-0.0666748	-0.0564222	-0.129118	0.255039	1.33386	0	0	-0.230822	-0.507299	0.830555	0.700742	0.558801	0	0
